<mxfile host="app.diagrams.net" modified="2024-07-01T15:23:19.057Z" agent="Mozilla/5.0 (Windows NT 10.0; Win64; x64) AppleWebKit/537.36 (KHTML, like Gecko) Chrome/126.0.0.0 Safari/537.36" etag="RcalPodEUMXXdskvPI0L" version="24.6.4" type="device">
  <diagram name="Page-1" id="W2ZwtVP6RtgHLsqowCTj">
    <mxGraphModel dx="461" dy="484" grid="1" gridSize="10" guides="1" tooltips="1" connect="1" arrows="1" fold="1" page="1" pageScale="1" pageWidth="850" pageHeight="1100" math="0" shadow="0">
      <root>
        <mxCell id="0" />
        <mxCell id="1" parent="0" />
        <mxCell id="qWTteXUrTTnKCtZ3xHiV-3" style="edgeStyle=orthogonalEdgeStyle;rounded=0;orthogonalLoop=1;jettySize=auto;html=1;exitX=0.5;exitY=1;exitDx=0;exitDy=0;entryX=0.5;entryY=0;entryDx=0;entryDy=0;" edge="1" parent="1">
          <mxGeometry relative="1" as="geometry">
            <mxPoint x="199.41" y="120" as="sourcePoint" />
            <mxPoint x="199.9999999999999" y="210" as="targetPoint" />
          </mxGeometry>
        </mxCell>
        <mxCell id="qWTteXUrTTnKCtZ3xHiV-1" value="Start" style="rounded=1;whiteSpace=wrap;html=1;" vertex="1" parent="1">
          <mxGeometry x="140" y="58" width="120" height="60" as="geometry" />
        </mxCell>
        <mxCell id="qWTteXUrTTnKCtZ3xHiV-2" value="End" style="rounded=1;whiteSpace=wrap;html=1;" vertex="1" parent="1">
          <mxGeometry x="140" y="369" width="120" height="60" as="geometry" />
        </mxCell>
        <mxCell id="qWTteXUrTTnKCtZ3xHiV-4" value="1. Do nothing" style="text;html=1;align=center;verticalAlign=middle;resizable=0;points=[];autosize=1;strokeColor=none;fillColor=none;" vertex="1" parent="1">
          <mxGeometry x="155" y="16" width="90" height="30" as="geometry" />
        </mxCell>
        <mxCell id="qWTteXUrTTnKCtZ3xHiV-5" value="&quot;Ruben&quot;" style="shape=document;whiteSpace=wrap;html=1;boundedLbl=1;" vertex="1" parent="1">
          <mxGeometry x="140" y="210" width="120" height="80" as="geometry" />
        </mxCell>
        <mxCell id="qWTteXUrTTnKCtZ3xHiV-6" style="edgeStyle=orthogonalEdgeStyle;rounded=0;orthogonalLoop=1;jettySize=auto;html=1;exitX=0.5;exitY=1;exitDx=0;exitDy=0;entryX=0.5;entryY=0;entryDx=0;entryDy=0;" edge="1" parent="1">
          <mxGeometry relative="1" as="geometry">
            <mxPoint x="199.41" y="279" as="sourcePoint" />
            <mxPoint x="199.9999999999999" y="369" as="targetPoint" />
          </mxGeometry>
        </mxCell>
      </root>
    </mxGraphModel>
  </diagram>
</mxfile>
